# xmcd
#
# Track frame offsets:
#	150
#	19978
#	31093
#	72324
#	93216
#	129422
#	145235
#	163863
#	185907
#	197901
#	222872
#	239298
#
# Disc length: 3440 seconds
#
# Revision: 1
# Processed by: cddbd v1.5.2PL0 Copyright (c) Steve Scherf et al.
# Submitted via: audiograbber 1.83.01
#
DISCID=ae0d6e0c
DTITLE=Alex Conti and Frank Diez - Berlin Blues
DYEAR=2008
DGENRE=Blues
TTITLE0=Top Of The Hill
TTITLE1=I Ain't Got You
TTITLE2=Down, Down And Down
TTITLE3=Black Espandrillos
TTITLE4=Death Of J.B. Lenoir
TTITLE5=Berlin Blues
TTITLE6=Till Your Lovin' (Makes Me Blue)
TTITLE7=Who Know's
TTITLE8=I'm Not Talking
TTITLE9=Junior's Wailing
TTITLE10=Ju Ju Man
TTITLE11=You Ain't Nothin' But Fine
EXTD=
EXTT0=
EXTT1=
EXTT2=
EXTT3=
EXTT4=
EXTT5=
EXTT6=
EXTT7=
EXTT8=
EXTT9=
EXTT10=
EXTT11=
PLAYORDER=
